<svg xmlns="http://www.w3.org/2000/svg" xml:space="preserve" viewBox="0 0 112.536 87.954">
  <path id="mare" fill="#5D5E5E" d="M89.313 80.012c-.5 1.584-1.417 3.251-1.125 3.584s4.292.501 5.083.417 1.542-.667 1.625-1.542 1.875-3.5 2.625-3.875.375-1.75.375-2.917-.521-8.958.094-10.833 1.656-3.96 1.656-3.96 1.792 4.459 2.167 7.417.375 6.666 0 7.791-3.667 4.75-3.833 5.25-.167 1.584.375 1.584 4.667.083 5.208-.042 2.292-2.666 2.25-3.333-.458-2.626-.375-3.084 2.833-2.958 2.458-4.708-1.583-3.542-1.958-4.875-2.625-9.797-2.458-12.089.75-4.918-.708-6.209-4.084-7.125-3.917-9.417 1.292-5.13 2.625-6.046c0 0 .208 5.333.458 6.833s.583 1.5 1.208 2.625.875 1.5.708 2.583-.416 2.583.417 2.958.542 1.876.542 2.917.708 1.832 1 2.416.292 3.293.208 4.334 1.445 1.624 1.91 2.041.09 2.626.84 3.334.833 1.834 1.375 1.834.708-.042.792-.792-.25-3.209.333-4.25 1.583-2.041 1.167-3.708-1.083-3.959-1.125-4.667.25-2.916-.75-3.916-.417-3.427-.875-4.302-.167-4.084-1.167-5.167-1.167-3.97-.917-4.761.084-1.417-.333-2.5-1.084-2.917-1.042-4.292.584-7.347.292-9.347-2.396-8.423-5.208-10.173S90.138 1.938 88.131 1.5 83.813 0 82.063 0s-4.188 1.375-9.875 2.438-12.563 2.75-16.25 2.75-10.125-1.563-12.063-1.563-8.125.625-17.5 11.625S12 42.688 11.5 43.813s-1.875 7.313-2.438 7.5-3.938-1.438-4.75-1.5c0 0 .313 3.813 2.188 5.438s-3.479 4.209-3.771 7.792c-.132 1.624.833 2.166 1.208 2.583s.708 2.541.375 3.833-1.063 3.126-1.594 4.584.178 2.291-.322 3.333S.563 79.043.063 80.293s2.125 3.084 3.417 3.375 4.916-.75 5.333-1.375-.083-1.917.333-2.667 7.875-8.667 8.417-10.25 1.458-6.249.833-7.708-.33-1.75.21-2.875 4.374-8.555 6.165-11.638 2.75-5.5 5.083-5.292 4.75 2.959 6.333 11.25 1.75 11.833 1.5 14.833-1.041 7.667-2.333 9.125-4.667 4.834-4.708 5.417-.292 1.458.75 1.458h4.333c.5 0 1.813-.834 2.052-1.542s.906-2.084 1.364-2.5 1.917-2.209 2.042-3 1.083-4.171.708-5.546-.875-3.624-1-5.416-.125-3.799-.042-4.757.75-1.75.667-2.75-.667-2.167-.667-2.917-.375-7.643.167-8.81 2.5-2.334 2.5-2.334l7.625 2.584 2.667 11.625s1.458 2.959 2.583 3.75 4.792 7.134 5.292 9.509.375 5.548-.417 6.507-3.292 3.293-3.417 3.709-.417 1.708.083 1.708 4.958.401 5.5.18 3.042-1.805 2.958-2.68-.792-2.292-.708-2.917.337-1.792.71-2.25 1.039-2.167.706-3.25-5.833-10.082-6.167-11.166-.042-3.541-.667-4.375-1.917-2.416-2.542-3.25-2.25-1.334-1.708-4.084 1.958-8.125 1.958-8.125l23.333-.642s7.208-.584 8.792 1.708 4.542 8.958 4.625 10.583.875 8.292.667 9.792-2 10.929-3 12.429"/>
  <path id="foal" fill="#878787" d="M36.896 11.042s3-.917 4.917 0c0 0 .167-3.063 1.333-3.833.396.063 2.417 2.958 1.417 5.25 0 0 1 .292 1.188.635s.563 1 .906 1.031 1.406-.469 1.5 0-.157 1.094.156 1.281 1.063-.094 1.313.406-.25.906 0 1.063.844.063 1.094.25.156 1.469.25 1.75S52 20.844 52.625 21s1.438-.063 1.75.406.188 1.469.5 1.656 1.344-.156 1.656.25-.125 2.407.469 2.813.875.844 1.906.844 5.448-.761 7.323-1.969 5.5-2.292 7.792-2.292 6.667 2.479 7.729 2.979 5.125 2.438 5.813 3.75 1.25 2.406 1.031 2.531-1.813.5-1.531.75 1.813 1.875 1.719 2.188-1.844.688-1.782 1.469.875 2.563.813 3.313-1 1.313-1.031 1.781.594.563.594 1.094-.906 1.75-.688 2.438 1.125 1.563 1.063 2.188-.625.938-.625 1.375 1.188 1.813 1.125 2.688-1.5.938-2.438.375-1.125.5-.813 1.313.875 1.75 1.375 2.813.688 2.813 1.125 3.438 2.063 1.563 2.25 3.313-.875 2.375-.938 4.313 0 3 .188 4.188.731 1.688.772 3.063.291 2.813.728 3.313 1.063 2.563.5 3.188-2.063 3.25-2.188 4.063.063 1.688 0 2.313-.313 1-1 1h-2.563s-.563-.813.375-1.75 1.313-1.688 1.313-2.625.125-16-.313-16.75-1.875-2.438-1.938-3.25.25-2.625-.563-3.625-4.438-6.688-4.5-7.25-1.873-.757-1.623.68 1.375 4.438 2.063 5.313 1.875 1.813 1.813 3.188-1.063 1.563-1.063 2.875v7.625c0 1.312.688 4.063 1.063 5.188s.313 2.438-.563 3.5-1.563 2.75-1.563 3.75-.125 1.063-.938 1.125-2.063 0-2.563 0-.25-.75.313-1.563 2.188-3.625 2.25-7 0-10.938 0-12.188-1.563-2.75-1.875-3.625S76.625 58.813 76 58s-6.063-10.375-6.188-12.188c0 0-6.063 3.063-12.75 3.063 0 0-2 5.375-2.188 8.5s.688 3.688.938 5.375.313 2.625-.125 3.688S54.875 68 54.875 69v2.5c0 .562.625 1.375.813 2.625s.25 3.5 1 4.563-.188 3.25-.625 4-1.25 3.688-1.25 4.563-.125.687-.813.687-1.625.017-2.125.017-.938-.704-.375-1.267 2.313-1.875 2.313-3.063.687-8.187.187-9.937-2.375-6.5-2.438-7.625.813-5.313.125-6.563-1-2.625-1.688-1.938-.188 5.75-.375 7.75S48.938 67.813 49 69s1 3.5 1 4.875.125 3.5.25 4.188.875 1.563.75 2.75S50.063 82 49.5 83s-.563 2.313-.563 2.875-.625.813-1.25.938-1.063.25-1.688.125-.438-1.75 0-2.25 1.813-2.625 1.813-3.75.25-9.313-.438-10.875-1.688-4.375-1.75-5.625.938-8.5.063-10.25-1.75-5-2-7c0 0-5.188-3.75-5.313-7.375s1.875-6.25 1.5-8.063c0 0-1.125.167-2.313.104-.719-.038-1.644.13-2.263-.356-.402-.317-.675-.717-.675-1.186 0-1.188.75-1.125.875-1.563.219-.766-.201-2.236-.188-3.5.009-.87.15-1.791-.041-2.497-.309-1.141-.713-2.328-1.021-2.753-.5-.688-.75-1.625-.75-2.75s1.125-1.688 1.25-2.375.065-1.374.252-1.936c0 0-1.563-1.625-.5-4.25 0 0 1.479-.292 2.396 2.354z"/>
</svg>
